<?xml version="1.0" standalone="no"?>
<!DOCTYPE svg PUBLIC "-//W3C//DTD SVG 20010904//EN"
 "http://www.w3.org/TR/2001/REC-SVG-20010904/DTD/svg10.dtd">
<svg version="1.0" xmlns="http://www.w3.org/2000/svg"
 width="1000.000000pt" height="1000.000000pt" viewBox="0 0 1000.000000 1000.000000"
 preserveAspectRatio="xMidYMid meet">
<metadata>
Created by potrace 1.11, written by Peter Selinger 2001-2013
</metadata>
<g transform="translate(0.000000,1000.000000) scale(0.100000,-0.100000)"
fill="#000000" stroke="none">
<path d="M6506 8940 c-22 -10 -42 -18 -45 -15 -4 2 -13 -1 -21 -7 -12 -8 -12
-9 3 -4 11 3 16 2 12 -4 -3 -6 -13 -10 -22 -10 -19 0 -80 -18 -107 -32 -11 -6
-47 -19 -80 -30 -83 -27 -111 -45 -96 -63 10 -12 14 -12 28 1 22 23 89 50 141
58 25 4 72 18 105 31 34 13 90 29 126 36 96 17 115 24 118 42 5 26 -111 24
-162 -3z"/>
<path d="M6082 8825 c-37 -20 -69 -32 -79 -28 -12 5 -15 2 -10 -10 3 -9 3 -17
-2 -17 -4 0 -35 -25 -69 -55 -34 -31 -65 -55 -69 -53 -11 4 -103 -134 -103
-154 0 -10 -4 -18 -10 -18 -6 0 -9 -5 -8 -11 2 -6 -3 -14 -10 -16 -8 -3 -10 1
-6 14 6 14 4 16 -6 6 -10 -9 -10 -16 -2 -26 9 -10 7 -19 -6 -38 -9 -13 -17
-29 -18 -36 -3 -21 -28 -48 -46 -49 -16 -2 -16 1 -3 27 21 40 19 41 -20 18
-36 -21 -46 -33 -21 -23 11 4 13 -1 6 -28 -4 -18 -11 -40 -14 -48 -8 -18 -65
-55 -98 -65 -26 -8 -128 -103 -128 -120 0 -6 -30 -40 -67 -75 -37 -36 -61 -57
-54 -47 8 9 11 17 7 17 -3 0 -18 -18 -32 -40 -15 -22 -31 -37 -37 -33 -5 3 -7
1 -4 -4 4 -6 -19 -69 -52 -139 -71 -157 -75 -167 -72 -178 3 -13 -51 -66 -61
-60 -4 3 -8 0 -8 -5 0 -6 -13 -40 -30 -74 -16 -35 -30 -69 -30 -75 0 -7 -3
-12 -6 -12 -8 0 -111 97 -300 285 -309 306 -411 403 -488 463 -43 34 -106 86
-139 115 -88 77 -250 197 -266 197 -31 0 -80 24 -84 42 -8 27 -25 22 -29 -9
-2 -16 5 -40 16 -55 26 -38 17 -52 -19 -28 -16 11 -39 25 -50 32 -11 7 -31 20
-45 29 -14 9 -108 59 -210 111 -161 81 -196 95 -265 106 -44 6 -109 9 -145 6
-36 -3 -112 -5 -170 -4 -58 0 -139 -4 -181 -11 -56 -9 -80 -9 -95 -1 -17 10
-16 11 11 12 17 0 37 5 45 11 11 7 1 8 -35 4 -27 -3 -54 -10 -60 -14 -5 -4
-23 -8 -38 -9 -36 -2 -128 -29 -186 -54 l-44 -19 23 -24 22 -24 -37 -15 c-21
-9 -40 -16 -43 -16 -3 0 -46 -20 -96 -44 -140 -67 -218 -102 -256 -115 -20 -6
-60 -27 -89 -47 -30 -19 -49 -28 -41 -20 16 21 11 20 -44 -4 -50 -21 -136 -95
-136 -116 0 -8 -4 -14 -9 -14 -5 0 -33 -20 -62 -45 -33 -28 -62 -45 -79 -45
-37 0 -83 -36 -135 -108 -25 -34 -45 -64 -45 -67 0 -2 -17 -31 -38 -64 -22
-33 -49 -88 -62 -123 -13 -35 -45 -102 -72 -149 -30 -55 -50 -105 -54 -135 -4
-27 -21 -85 -39 -129 -18 -44 -43 -116 -55 -160 -12 -44 -30 -105 -40 -135
-51 -150 -59 -195 -64 -350 -3 -102 -2 -118 16 -142 11 -16 16 -28 11 -28 -4
0 -7 -18 -7 -40 1 -22 -2 -43 -7 -46 -5 -3 -8 -15 -8 -27 1 -18 2 -19 6 -4 4
16 10 14 39 -18 19 -21 34 -43 34 -49 1 -17 9 -101 18 -186 4 -41 4 -97 0
-125 -5 -27 -11 -97 -14 -155 -6 -134 -6 -130 -15 -130 -4 0 -4 -14 1 -31 5
-17 8 -36 7 -43 -1 -6 4 -10 10 -9 8 2 13 -9 14 -30 2 -50 -1 -59 -27 -98 -13
-19 -24 -44 -24 -55 0 -30 55 -237 94 -355 19 -57 44 -140 55 -184 28 -105
107 -265 130 -265 9 0 32 -16 50 -35 18 -20 36 -33 39 -31 9 9 32 -44 32 -73
0 -54 76 -203 151 -294 62 -76 169 -178 145 -138 -5 8 -9 28 -8 45 0 17 -3 35
-8 41 -5 6 -14 23 -19 38 l-11 28 46 -32 c45 -31 46 -31 39 -8 l-7 24 21 -20
c28 -27 19 -67 -15 -61 -17 3 -21 1 -17 -10 3 -9 14 -12 30 -9 14 2 23 1 19
-2 -3 -4 1 -15 11 -25 9 -10 13 -21 10 -25 -4 -4 3 -18 15 -32 22 -24 21 -24
-8 2 -38 34 -68 37 -58 5 7 -24 123 -177 146 -195 7 -5 20 -9 28 -9 8 1 26
-15 39 -34 35 -51 132 -160 153 -171 16 -8 17 -7 9 14 -23 61 -54 117 -77 137
-23 23 -33 60 -15 60 4 0 25 -16 45 -35 26 -24 47 -35 68 -35 31 0 56 -16 134
-84 31 -27 41 -42 33 -47 -9 -5 -10 -11 -2 -21 6 -7 13 -33 16 -57 3 -27 15
-53 31 -70 14 -15 26 -31 26 -37 0 -5 66 -73 146 -151 94 -92 143 -146 138
-154 -5 -8 -3 -9 5 -4 15 9 63 -33 54 -48 -3 -6 -1 -7 5 -3 9 5 73 -40 92 -66
14 -18 97 -78 108 -78 7 0 23 -10 36 -22 157 -157 341 -322 353 -320 14 3 49
-28 218 -194 28 -27 87 -90 133 -139 46 -50 92 -99 103 -110 30 -33 24 -53 -8
-24 -31 27 -17 4 26 -43 25 -29 51 -28 29 0 -18 25 -9 16 192 -182 102 -100
208 -201 237 -225 30 -25 70 -73 93 -112 42 -70 76 -108 40 -45 -33 59 3 45
45 -18 30 -46 34 -57 25 -80 -11 -30 -14 -29 -75 19 -66 52 -73 50 -16 -4 29
-29 66 -58 82 -67 20 -10 29 -22 29 -39 0 -14 5 -25 10 -25 6 0 10 5 10 10 0
6 5 10 11 10 15 0 89 -61 89 -74 1 -14 35 -56 47 -56 4 0 21 -19 37 -42 28
-38 30 -40 37 -19 5 11 13 21 19 21 14 0 12 -11 -5 -34 -23 -30 -19 -81 9
-111 25 -27 100 -47 139 -37 22 5 22 5 4 -16 -20 -22 -16 -42 8 -42 7 0 15 6
18 13 2 6 8 -5 12 -26 4 -21 16 -42 27 -48 16 -9 17 -13 6 -27 -11 -15 -11
-15 2 -5 10 8 21 9 30 3 24 -15 37 -12 55 16 9 15 11 23 4 19 -8 -5 -10 -4 -5
3 4 7 13 12 21 12 8 0 31 20 51 44 20 24 42 42 48 40 6 -2 17 6 25 18 14 23
14 23 -8 4 -11 -11 -21 -16 -21 -12 0 14 83 111 96 111 7 0 16 4 20 8 4 4 12
7 18 7 6 0 4 -5 -4 -10 -8 -5 -10 -10 -4 -10 6 0 17 7 24 15 7 8 16 12 21 9 5
-2 16 4 26 15 9 11 20 18 25 15 5 -3 7 -1 6 3 -4 12 58 83 66 76 3 -4 6 1 6 9
0 9 7 21 15 28 8 7 15 19 15 27 0 11 -6 8 -21 -8 l-21 -24 16 25 c9 14 21 26
26 26 6 1 14 2 19 3 5 0 8 12 7 26 -2 13 0 22 5 20 14 -9 22 17 8 27 -12 7
-11 8 1 6 19 -4 58 34 52 50 -6 18 -20 14 -27 -8 -3 -11 -11 -20 -16 -20 -12
0 16 54 45 87 10 12 23 20 29 16 6 -4 7 -1 3 6 -5 7 -1 20 8 29 10 11 12 22 6
32 -9 14 4 50 19 50 11 0 10 -34 -1 -41 -10 -7 8 -54 31 -83 10 -12 11 -17 3
-12 -9 5 -15 1 -19 -13 -3 -12 -9 -21 -13 -21 -4 0 -10 -10 -13 -22 -6 -23 -6
-23 8 -3 35 47 58 66 66 54 10 -17 2 -28 -28 -40 -14 -5 -23 -12 -19 -16 3 -3
-2 -16 -11 -27 -10 -11 5 -1 33 22 27 23 53 42 56 42 9 0 -17 -70 -32 -83 -9
-8 -11 -8 -6 0 4 7 -1 9 -16 5 -19 -5 -20 -7 -5 -10 20 -4 22 -13 5 -30 -16
-16 -26 -15 -31 3 -4 11 -4 10 -3 -2 1 -10 -7 -27 -16 -38 -10 -11 -28 -33
-40 -48 -13 -15 -30 -29 -38 -31 -48 -9 -69 -19 -63 -30 4 -6 -2 -4 -12 4 -10
8 -16 10 -12 3 4 -6 3 -14 -3 -18 -5 -3 -10 -15 -10 -25 0 -10 -5 -22 -11 -25
-7 -5 -9 5 -5 31 6 37 6 37 -14 19 -14 -12 -17 -22 -10 -30 5 -6 7 -15 4 -18
-4 -3 -8 -20 -10 -37 -2 -17 -11 -44 -19 -60 -14 -26 -18 -29 -36 -19 -11 6
-23 8 -27 5 -3 -3 0 -6 7 -6 7 0 9 -5 5 -11 -4 -7 -1 -10 7 -7 8 3 20 -2 28
-10 13 -13 17 -12 29 7 22 32 35 25 17 -10 -9 -17 -14 -33 -11 -36 5 -5 56 89
56 104 0 4 -5 2 -12 -5 -7 -7 -19 -12 -28 -12 -11 1 -8 6 10 21 14 12 26 16
28 10 2 -6 10 -11 18 -11 12 0 12 -4 2 -22 -30 -52 -119 -157 -139 -163 -12
-4 -38 -23 -57 -42 -25 -26 -37 -32 -46 -23 -8 8 -7 13 4 20 21 14 -5 13 -31
0 -25 -14 -24 -26 4 -34 18 -5 20 -8 7 -16 -8 -5 -10 -10 -4 -10 6 0 17 7 24
15 7 8 17 15 23 15 5 0 3 -8 -6 -18 -10 -10 -17 -22 -17 -26 0 -9 -27 -37 -35
-36 -3 1 -9 0 -13 -3 -4 -2 -2 -3 4 -1 6 1 19 -9 29 -23 l19 -25 10 24 c8 20
10 21 13 5 6 -26 24 -17 56 29 34 48 51 84 48 104 -2 13 -1 13 8 0 9 -13 16
-10 43 19 20 20 26 31 16 28 -11 -4 -18 -1 -18 6 1 14 30 55 30 42 0 -5 14 4
30 20 17 16 28 35 26 42 -3 7 0 15 6 19 7 4 8 3 4 -4 -4 -7 -1 -12 9 -12 9 0
24 13 33 30 9 16 20 30 25 30 4 0 7 5 7 11 0 18 58 89 134 163 39 38 71 73 71
78 0 4 5 8 10 9 6 0 19 8 30 17 19 16 19 16 6 -1 -7 -9 -11 -17 -7 -17 3 0 -2
-9 -11 -19 -30 -32 -39 -46 -40 -56 -1 -5 -6 -10 -12 -12 -7 -1 -7 1 -2 3 6 3
7 12 4 19 -3 10 -17 -3 -40 -37 -20 -29 -49 -62 -64 -75 -15 -13 -31 -33 -34
-43 -4 -11 -12 -20 -18 -20 -7 0 -28 -23 -47 -50 -19 -27 -38 -50 -42 -50 -5
0 -8 -7 -8 -15 0 -13 4 -14 22 -4 18 10 20 9 15 -6 -4 -9 -7 -21 -7 -26 0 -5
-4 -8 -9 -7 -5 2 -8 0 -7 -3 0 -3 -5 -13 -13 -22 -7 -10 -10 -17 -6 -17 5 0 0
-10 -11 -22 -15 -19 -16 -20 -1 -9 14 11 17 11 17 -1 0 -8 -6 -20 -12 -27 -8
-9 -8 -11 -2 -8 18 10 51 80 46 96 -3 8 0 11 6 7 5 -3 13 1 16 10 4 9 2 13 -5
8 -19 -11 -6 13 31 61 36 45 59 60 40 26 -19 -36 -10 -34 20 4 16 20 32 46 36
58 4 12 10 24 13 27 4 3 18 23 31 45 32 53 101 140 110 140 9 0 80 50 105 73
8 6 16 8 19 3 3 -5 -16 -29 -43 -54 -27 -25 -44 -48 -39 -49 13 -5 -18 -68
-33 -68 -6 0 -7 -5 -4 -11 4 -5 -1 -19 -11 -30 -9 -10 -13 -19 -8 -19 6 0 23
20 38 45 16 24 33 42 39 38 6 -3 7 -1 3 6 -4 6 0 18 8 27 9 8 16 21 16 27 0 8
-4 7 -12 -1 -7 -7 -17 -12 -23 -12 -5 1 31 39 80 87 50 47 71 69 47 49 -24
-20 -47 -34 -53 -30 -6 3 52 68 128 144 76 76 167 175 202 219 36 44 67 79 69
76 3 -2 -1 -11 -8 -20 -17 -20 -6 -19 15 1 12 13 13 19 5 24 -9 5 3 28 37 71
28 35 62 83 77 107 16 25 31 40 38 36 6 -4 8 -3 5 3 -8 12 99 157 119 161 8 2
12 8 9 13 -4 5 -1 9 5 9 6 0 8 5 4 12 -4 6 -3 8 3 5 5 -3 67 67 136 156 70 89
147 187 172 217 58 70 263 331 335 426 30 40 66 85 80 101 14 15 26 30 26 33
0 3 18 32 41 65 37 54 66 90 120 150 10 10 27 34 38 51 11 18 65 94 120 170
93 128 138 196 100 149 -9 -11 -22 -19 -28 -17 -7 2 -9 0 -5 -4 7 -7 -26 -59
-59 -92 -24 -25 -15 22 10 48 12 13 27 33 33 45 6 11 16 19 22 18 6 -2 9 3 6
10 -2 7 6 22 18 33 23 19 23 19 8 -1 -14 -18 -14 -19 2 -6 10 7 15 17 13 22
-7 10 44 89 56 89 5 0 8 4 6 8 -2 8 92 142 100 142 2 0 1 -6 -3 -12 -4 -7 11
4 32 24 22 21 46 38 54 38 7 0 10 3 7 6 -9 10 12 44 27 44 7 0 13 7 13 15 0 8
-6 15 -14 15 -7 0 -13 -3 -13 -7 0 -13 -91 -108 -100 -106 -5 2 -22 -14 -37
-34 -42 -55 -105 -118 -115 -115 -5 1 -7 -2 -4 -7 4 -5 1 -13 -6 -18 -7 -4
-20 -21 -29 -38 -9 -16 -22 -29 -29 -27 -7 2 -10 -3 -7 -12 6 -15 -15 -51 -30
-51 -10 0 -54 -45 -69 -71 -6 -10 -17 -20 -25 -23 -14 -4 38 71 53 77 4 2 8
10 8 18 0 8 5 14 10 14 6 0 14 10 19 23 9 24 35 58 86 111 17 18 35 43 41 56
13 27 74 107 114 149 13 14 25 32 26 39 2 8 10 22 18 31 9 10 13 21 9 25 -5 4
-1 6 7 4 9 -2 16 6 18 20 2 12 7 20 11 17 5 -2 39 33 76 80 74 92 89 103 105
77 9 -15 10 -14 5 5 -3 13 -1 25 7 30 7 4 21 22 30 39 10 17 37 51 61 75 24
24 55 69 70 99 29 57 83 122 111 133 9 4 16 12 16 18 0 9 -4 9 -14 0 -23 -19
-28 4 -6 29 11 13 20 26 20 30 0 11 40 54 40 44 1 -5 10 8 21 29 11 20 21 37
23 37 15 0 -11 -66 -52 -133 -27 -45 -61 -105 -76 -134 -14 -28 -30 -54 -36
-58 -15 -9 -12 -25 3 -19 7 2 22 19 32 37 11 18 38 52 62 76 24 24 43 46 43
49 0 3 11 20 25 38 19 25 22 33 10 38 -9 3 -12 0 -9 -8 5 -13 -24 -31 -34 -21
-14 14 111 162 133 156 5 -1 7 1 3 4 -7 8 18 65 28 65 3 0 2 -5 -2 -12 -5 -7
-3 -8 5 -4 7 5 10 14 7 22 -3 8 -1 14 4 14 6 0 10 6 10 14 0 8 6 21 13 28 8 7
20 30 26 51 8 22 17 34 23 31 7 -4 8 -2 4 4 -4 6 0 24 8 39 8 16 15 21 16 13
0 -13 1 -13 10 0 5 9 5 17 0 20 -5 3 17 44 50 90 33 46 60 88 61 94 0 6 13 38
29 71 23 49 29 55 31 35 1 -14 5 2 9 35 4 33 15 89 23 125 9 36 24 103 33 150
9 47 21 96 27 109 8 15 11 93 10 227 -1 112 2 206 7 209 5 3 13 -16 18 -42 6
-26 7 -50 2 -53 -10 -6 -25 -60 -16 -60 4 0 11 10 16 23 8 16 9 9 4 -28 -3
-28 -7 -63 -8 -78 -2 -14 0 -24 5 -22 16 11 -17 -217 -51 -350 -10 -38 -21
-92 -24 -120 -3 -27 -12 -75 -20 -105 -11 -41 -11 -51 -2 -38 7 10 16 16 19
13 4 -3 5 -2 2 1 -2 4 2 21 10 39 7 19 11 36 8 39 -3 3 1 25 9 48 24 65 68
274 68 321 0 4 4 7 10 7 5 0 12 -16 16 -35 7 -41 22 -47 22 -8 0 15 4 29 9 30
4 2 7 22 5 44 -3 29 -1 40 7 35 7 -5 11 1 11 14 0 11 7 37 15 56 10 24 15 77
17 160 2 110 3 121 15 97 11 -26 12 -24 11 31 -2 66 16 89 21 29 7 -72 6 -318
-1 -383 -4 -36 -8 -85 -9 -110 -1 -40 -3 -37 -9 22 -5 37 -14 84 -20 104 -11
31 -14 34 -22 20 -10 -17 -13 -165 -4 -174 3 -2 1 -15 -5 -29 -6 -16 -6 -22 1
-18 6 4 10 -6 10 -21 0 -39 -31 -145 -40 -139 -5 3 -13 -14 -18 -37 -6 -24
-20 -68 -32 -98 -12 -30 -30 -79 -40 -108 -11 -29 -33 -79 -51 -112 -18 -33
-29 -63 -25 -67 3 -3 6 -1 6 5 0 14 41 84 47 79 2 -3 -3 -20 -11 -38 -8 -19
-24 -67 -35 -108 -21 -76 -72 -166 -86 -153 -5 4 -5 2 -1 -5 8 -14 -17 -66
-46 -97 -11 -12 -33 -47 -50 -78 -17 -32 -34 -58 -38 -58 -4 0 -7 -6 -7 -12
-1 -22 -134 -213 -146 -210 -7 2 -9 1 -5 -3 9 -10 -24 -69 -60 -109 -16 -18
-32 -44 -36 -59 -7 -28 -128 -194 -195 -266 -23 -24 -41 -46 -41 -50 0 -3 -22
-30 -49 -58 -26 -29 -46 -53 -44 -53 2 0 -39 -48 -92 -107 -54 -60 -118 -132
-144 -161 -25 -29 -61 -69 -78 -89 -18 -20 -33 -39 -33 -42 0 -4 -13 -21 -29
-38 -16 -18 -39 -46 -51 -63 -12 -16 -25 -28 -30 -25 -5 3 -16 -5 -24 -17 -20
-28 -20 -50 -1 -24 10 13 15 15 15 6 0 -7 13 5 29 26 16 21 44 56 63 76 20 21
48 55 63 75 16 21 41 50 56 64 15 15 29 33 31 40 4 12 8 11 24 -1 17 -14 18
-13 6 1 -10 13 -10 18 1 28 8 6 17 7 21 3 4 -4 6 0 4 8 -2 8 2 14 9 13 7 -2
10 3 8 10 -3 6 14 32 36 57 23 25 58 63 78 85 20 22 67 78 106 125 38 47 79
96 92 110 40 44 109 134 198 256 48 65 90 121 93 124 3 3 -14 -30 -36 -72 -23
-43 -41 -78 -39 -78 2 0 25 32 51 70 27 39 52 70 57 70 5 0 9 7 9 15 0 8 4 15
9 15 11 0 34 58 34 85 -1 11 5 24 13 28 8 5 12 12 9 18 -4 5 -1 9 5 9 6 0 9 4
6 8 -3 5 5 20 17 33 24 28 21 22 112 172 36 60 65 112 65 116 0 4 8 16 18 27
23 27 101 178 150 294 45 107 92 247 122 372 27 108 27 108 40 212 6 49 13
108 16 130 2 23 7 55 10 71 18 97 10 184 -26 305 -13 41 -25 91 -27 110 -7 72
-12 146 -14 190 l-1 45 -8 -34 c-5 -19 -6 -40 -3 -48 8 -22 -18 -185 -37 -227
l-17 -39 -28 74 c-16 41 -32 78 -37 84 -4 5 -8 17 -8 26 0 10 -5 19 -11 21 -6
2 -13 24 -15 48 -11 138 -22 231 -28 237 -3 3 -6 -40 -6 -97 0 -93 -2 -102
-15 -84 -13 18 -14 18 -8 -6 3 -14 2 -22 -2 -18 -4 4 -10 67 -12 140 -2 73 -8
178 -13 232 -5 55 -7 103 -4 107 2 4 0 9 -6 11 -5 1 -12 28 -14 58 -6 58 -15
106 -35 180 -7 25 -17 63 -23 85 -6 22 -18 67 -28 100 -24 77 -40 170 -40 223
0 76 -113 269 -199 340 l-40 32 -15 -22 c-15 -23 -18 -71 -5 -62 11 6 99 -108
99 -129 0 -11 -4 -15 -11 -11 -7 4 -10 1 -7 -7 3 -8 10 -14 17 -14 12 0 48
-64 99 -175 21 -46 67 -181 95 -280 23 -80 37 -175 37 -255 0 -39 5 -86 10
-105 6 -19 13 -100 17 -179 6 -135 5 -144 -11 -138 -10 4 -20 7 -22 7 -2 0 -4
8 -4 17 0 15 2 14 15 -3 19 -25 19 -17 -1 37 -8 24 -20 82 -25 129 -15 130
-36 220 -73 324 -28 78 -31 96 -20 108 10 11 10 23 -3 68 -8 30 -22 82 -31
115 -8 33 -18 62 -21 65 -4 3 -15 23 -24 45 -27 61 -88 128 -110 120 -23 -9
-22 -30 4 -74 l22 -36 -34 35 c-35 36 -148 174 -163 198 -5 8 -2 18 9 25 15
12 14 15 -6 37 -12 14 -28 35 -36 46 -8 12 -33 35 -56 50 -23 16 -44 32 -47
36 -3 4 -12 3 -19 -1 -9 -6 -50 18 -129 74 -110 80 -138 91 -170 71 -30 -18
-9 -56 58 -106 52 -39 72 -63 59 -71 -16 -10 -23 -7 -126 42 -51 24 -92 50
-93 57 0 7 -7 15 -16 19 -11 4 -12 8 -4 13 8 5 7 9 -5 13 -9 4 -13 3 -10 -3 9
-14 -7 -12 -27 4 -10 7 -16 16 -13 19 3 4 2 5 -1 2 -4 -2 -34 10 -68 26 -77
39 -53 15 39 -40 39 -22 77 -45 85 -50 12 -7 -73 20 -170 55 -8 3 -17 5 -19 4
-2 -1 -7 2 -10 7 -3 5 -43 26 -88 48 -74 34 -101 55 -73 55 22 0 124 -31 136
-41 8 -7 17 -9 20 -6 3 3 -7 12 -22 20 -50 26 -7 29 58 3 123 -48 138 -46 56
7 -29 19 -62 44 -74 55 -20 19 -40 31 -118 74 -65 36 -326 115 -437 132 -20 3
-47 9 -60 14 -13 4 -64 7 -114 5 -49 -2 -96 -1 -104 2 -25 10 38 47 92 55 46
7 48 8 15 9 -21 0 -38 6 -38 11 0 6 -19 10 -42 10 l-43 1 30 14 c27 12 13 13
-129 9 -157 -5 -196 -12 -196 -38 0 -7 -15 -16 -34 -19 -50 -8 -144 -55 -150
-75 -6 -18 -60 -46 -85 -45 -8 1 -41 -16 -73 -38 -72 -49 -90 -57 -82 -35 4 9
23 25 43 36 21 10 43 26 50 34 8 9 21 16 30 16 23 0 58 26 48 36 -4 5 -11 4
-15 -2 -10 -15 -101 -48 -109 -40 -4 3 12 14 35 23 27 10 47 27 56 45 8 15 12
27 8 24 -36 -19 -202 -86 -202 -80 0 2 21 18 48 35 33 22 40 29 22 25 l-25 -5
25 19 c14 11 45 30 69 42 41 20 81 51 81 63 0 10 -15 4 -78 -30z m-864 -2882
l2 -343 -425 0 -425 0 1 339 c0 186 3 341 6 345 4 3 194 5 422 4 l416 -3 3
-342z m3282 -443 c0 -10 -6 -34 -14 -52 -18 -40 -28 -69 -32 -85 -4 -23 -165
-343 -175 -349 -12 -7 -12 -6 11 69 11 36 36 89 56 118 31 47 56 112 71 189 9
47 53 130 68 130 8 0 15 -9 15 -20z m-3285 -1545 l0 -1310 -420 0 -420 0 -3
1300 c-1 715 0 1306 3 1313 3 10 93 12 422 10 l418 -3 0 -1310z m2143 129 c6
3 14 1 18 -5 5 -8 3 -9 -6 -4 -9 5 -10 2 -5 -14 4 -14 1 -23 -9 -27 -9 -3 -14
-10 -11 -15 3 -4 -16 -31 -43 -58 -27 -28 -48 -52 -45 -54 2 -2 -3 -10 -12
-17 -9 -7 -19 -9 -23 -5 -4 4 -1 10 6 12 19 7 14 19 -12 31 -20 9 -27 7 -40
-7 -9 -10 -16 -22 -16 -27 0 -4 7 1 15 13 20 28 50 21 34 -8 -6 -13 -6 -19 1
-19 5 0 10 -5 10 -11 0 -16 -102 -142 -169 -209 -43 -43 -46 -45 -15 -10 21
25 55 65 74 88 19 24 47 57 62 74 15 17 25 35 21 41 -4 6 -1 7 7 2 9 -6 11 -4
5 5 -6 9 -16 4 -40 -21 -65 -67 -199 -194 -185 -174 8 11 20 26 25 33 6 8 22
28 38 44 15 16 27 33 27 36 1 19 52 63 66 58 12 -4 15 -2 10 9 -3 8 -1 15 5
15 6 0 7 5 4 11 -5 7 -14 4 -28 -8 -12 -10 -7 0 10 21 18 22 30 43 27 48 -3 5
-2 8 3 7 15 -4 59 19 73 37 14 18 13 18 -8 0 -12 -11 -22 -15 -22 -9 0 16 52
64 64 60 18 -7 48 13 42 28 -3 10 0 12 11 8 12 -5 14 -1 8 18 -4 17 -3 20 3
10 5 -7 14 -11 20 -7z m156 -183 c3 -5 -1 -14 -9 -21 -8 -7 -15 -21 -15 -32 0
-10 -9 -28 -20 -40 -11 -12 -20 -18 -20 -13 0 5 7 17 17 27 9 10 11 18 6 18
-6 0 -18 -11 -27 -25 -18 -27 -20 -36 -8 -32 7 2 12 -6 12 -24 0 -5 -4 -7 -10
-4 -5 3 -10 2 -10 -4 0 -5 -6 -11 -14 -13 -7 -2 -29 -23 -48 -48 -25 -32 -41
-44 -56 -43 -13 2 -22 -3 -22 -11 0 -7 -9 -16 -20 -19 -14 -4 -3 16 40 72 33
43 60 85 60 94 0 19 33 40 45 29 5 -4 5 -1 0 7 -5 9 6 25 36 52 47 40 55 44
63 30z m-365 -353 c-19 -24 -59 -73 -89 -110 -43 -55 -59 -68 -82 -68 -25 0
-33 -9 -29 -33 1 -5 -3 -6 -9 -2 -5 3 -10 -1 -10 -9 0 -15 -12 -21 -33 -17 -4
1 -7 -5 -5 -13 2 -8 -1 -15 -5 -15 -5 0 -23 -18 -40 -41 -18 -22 -33 -36 -35
-31 -2 6 6 20 17 32 11 12 18 25 16 29 -3 5 2 11 11 14 8 3 20 19 25 36 6 16
15 27 20 24 8 -4 13 8 11 27 0 3 19 27 44 54 24 27 44 53 44 58 0 5 6 4 14 -2
11 -9 15 -8 20 5 4 9 9 14 12 11 7 -7 -31 -63 -65 -94 -18 -18 -20 -23 -8 -23
9 0 21 6 27 13 5 6 25 30 42 52 18 22 48 53 66 70 17 17 32 34 32 38 0 11 33
47 38 42 3 -2 -11 -24 -29 -47z m-189 -70 c-17 -18 -46 -53 -63 -78 -53 -77
-151 -205 -160 -209 -4 -2 -12 -14 -17 -26 -9 -24 -23 -27 -50 -10 -13 8 -13
7 -1 -8 7 -9 17 -14 22 -11 19 11 7 -8 -37 -64 -48 -58 -82 -85 -97 -75 -5 3
-4 -4 2 -16 7 -11 8 -21 4 -21 -4 0 -17 -13 -28 -29 -10 -16 -23 -27 -27 -25
-5 3 -10 -2 -13 -10 -3 -9 -8 -24 -12 -33 -3 -10 -7 -21 -7 -25 -1 -4 -25 -40
-55 -79 -40 -53 -56 -67 -63 -57 -7 9 -8 8 -4 -5 8 -25 -40 -88 -62 -80 -14 4
-14 3 -3 -5 12 -9 8 -18 -23 -56 -20 -25 -40 -46 -43 -46 -3 0 0 7 7 15 9 11
10 19 3 26 -8 8 -29 -13 -71 -68 -33 -43 -71 -91 -86 -108 -37 -41 -41 -48
-49 -68 -3 -9 -18 -22 -32 -29 -17 -8 -24 -17 -20 -27 3 -8 3 -12 -1 -8 -4 4
-14 1 -22 -6 -13 -10 -14 -9 -4 10 7 12 18 27 25 35 7 7 23 27 35 43 45 59 78
98 114 139 21 22 38 45 38 49 0 5 5 5 10 2 6 -3 10 1 10 9 0 9 4 16 10 16 5 0
9 3 8 8 -5 12 54 82 63 76 5 -3 7 1 4 8 -4 12 37 68 49 68 2 0 6 -10 8 -22 3
-21 4 -21 9 4 4 15 2 25 -2 22 -19 -11 -8 15 21 52 76 97 93 114 113 114 11 0
17 3 14 6 -4 4 3 21 15 38 l21 31 -33 -30 c-18 -16 -29 -23 -25 -15 15 27 70
95 83 103 7 5 10 12 7 18 -4 5 1 9 10 9 9 0 13 5 10 10 -3 6 -1 10 4 10 6 0
10 3 9 8 -4 13 36 72 48 72 7 0 15 8 18 18 9 28 52 83 59 75 4 -3 7 0 7 9 0 8
11 25 25 38 13 12 22 28 18 33 -4 6 0 8 10 4 11 -4 15 -1 12 12 -2 10 8 31 22
47 l25 29 -22 -35 -22 -35 35 38 c19 20 39 37 45 37 6 0 9 6 6 13 -2 7 4 22
16 32 11 10 20 13 20 7 0 -6 -6 -12 -12 -15 -7 -2 -10 -7 -7 -11 7 -8 54 32
54 46 0 11 34 38 48 38 5 0 -5 -15 -23 -32z m-1040 -1282 c-10 -13 -8 -20 8
-41 18 -23 19 -28 6 -43 -8 -9 -29 -39 -47 -67 -19 -27 -38 -49 -44 -48 -6 1
-10 -5 -9 -15 0 -9 -4 -16 -10 -15 -6 1 -10 -8 -10 -20 1 -12 -4 -21 -11 -20
-15 3 -65 -56 -57 -68 3 -6 0 -17 -7 -25 -7 -9 -14 -21 -15 -28 -3 -21 -162
-243 -170 -238 -2 1 -10 2 -16 1 -7 0 -5 -3 4 -7 15 -6 14 -10 -6 -33 -23 -27
-50 -25 -52 3 0 7 -2 21 -2 31 -1 9 -7 16 -13 15 -6 -2 -14 3 -17 11 -3 10 0
12 12 8 10 -4 14 -3 11 2 -3 6 3 14 12 20 10 6 14 11 10 11 -9 0 19 43 72 108
25 31 36 39 42 30 7 -10 9 -10 9 2 0 9 30 45 66 80 80 79 154 173 154 195 0 9
3 14 8 12 4 -3 8 11 10 30 2 33 60 138 70 128 3 -2 -1 -11 -8 -19z"/>
<path d="M2844 8746 c19 -16 19 -16 -2 -16 -12 0 -22 -4 -22 -10 0 -5 10 -10
23 -10 25 0 142 -23 232 -46 83 -22 303 -110 448 -180 37 -18 67 -28 67 -23 0
5 -4 9 -9 9 -5 0 -24 15 -42 33 -20 19 -53 39 -79 46 -25 7 -64 26 -88 43
-116 81 -314 150 -472 163 -69 6 -73 5 -56 -9z"/>
<path d="M8756 8232 c-6 -16 3 -41 30 -90 80 -144 154 -294 154 -311 0 -10 8
-29 19 -42 10 -13 23 -37 29 -54 23 -65 10 -5 -17 80 -68 212 -124 339 -180
406 -28 33 -28 33 -35 11z"/>
<path d="M8340 8180 c0 -11 4 -20 8 -20 5 0 19 -19 32 -42 27 -50 90 -128 103
-128 9 0 54 -47 67 -70 5 -8 12 -11 16 -7 10 9 -70 166 -109 216 -51 64 -117
93 -117 51z"/>
<path d="M9224 6838 c4 -13 10 -39 13 -58 3 -19 9 -37 13 -40 9 -6 40 -78 38
-88 -1 -4 3 -18 9 -32 18 -44 26 -93 14 -86 -6 4 -11 0 -11 -8 0 -9 7 -16 15
-16 8 0 15 -3 15 -7 0 -5 7 -39 15 -78 7 -38 15 -114 17 -168 1 -54 6 -101 10
-103 5 -3 8 2 8 12 0 9 8 23 18 31 9 8 12 12 6 9 -6 -3 -10 16 -10 55 1 32 4
59 8 59 4 0 2 15 -3 33 -5 17 -12 69 -16 115 -3 45 -10 85 -15 88 -4 3 -8 21
-8 40 0 21 -6 37 -15 40 -8 3 -17 22 -21 42 -8 40 -24 74 -68 140 -32 47 -42
53 -32 20z"/>
<path d="M9186 6790 c-3 -19 -7 -51 -8 -70 -2 -24 -8 -34 -17 -32 -9 2 -11 -3
-7 -15 14 -37 36 -158 31 -171 -2 -7 0 -10 5 -7 6 3 10 -4 10 -17 0 -37 16
-55 37 -42 32 18 53 6 53 -31 0 -18 6 -40 13 -47 8 -7 16 -20 19 -28 17 -48
-3 107 -21 165 -12 39 -29 106 -37 150 -9 43 -24 91 -35 106 -10 15 -23 37
-28 50 -8 23 -9 22 -15 -11z"/>
<path d="M9318 6305 c-4 -4 -4 -13 -1 -21 3 -8 1 -14 -5 -14 -6 0 -14 -19 -18
-42 -6 -39 -8 -41 -17 -20 -5 12 -13 22 -17 22 -11 0 -20 -38 -20 -80 1 -47
22 -74 54 -68 21 4 26 0 31 -22 3 -15 2 -46 -4 -71 -5 -24 -13 -80 -17 -124
-3 -44 -11 -91 -16 -104 -9 -26 -2 -43 11 -23 10 16 6 -54 -9 -141 -12 -76
-35 -171 -46 -189 -4 -7 -3 -8 5 -4 8 6 10 -4 4 -36 -10 -61 -9 -73 2 -73 6 0
9 11 7 23 -2 13 1 22 5 19 4 -3 9 14 9 36 1 23 9 69 17 102 25 103 52 297 50
370 0 22 -1 121 -2 220 -2 176 -9 253 -23 240z"/>
<path d="M7008 2655 c-16 -18 -28 -37 -28 -42 0 -5 -10 -15 -23 -22 -13 -7
-31 -25 -40 -39 -9 -15 -30 -43 -48 -62 -18 -19 -34 -41 -35 -48 -1 -7 -15
-27 -31 -45 -15 -18 -39 -48 -53 -67 -14 -18 -40 -51 -57 -73 -38 -45 -39 -47
-16 -47 9 0 13 3 10 7 -8 7 29 58 84 118 44 47 147 177 175 220 23 37 54 68
60 62 4 -4 -21 -38 -99 -132 -44 -52 -71 -94 -65 -100 6 -7 181 214 202 255 4
9 1 8 -7 -2 -8 -10 -17 -18 -21 -18 -13 0 -5 18 19 44 13 14 19 26 12 25 -7 0
-24 -15 -39 -34z"/>
<path d="M6932 2394 c-35 -37 -73 -85 -84 -106 -12 -21 -25 -38 -30 -38 -4 0
-14 -12 -22 -27 -9 -16 -32 -46 -52 -68 -20 -22 -54 -66 -75 -97 -22 -31 -49
-64 -61 -72 -12 -9 -19 -16 -15 -16 4 0 -7 -21 -25 -47 -18 -27 -37 -55 -43
-64 -9 -16 -62 -86 -128 -172 -16 -21 -27 -40 -24 -43 4 -5 154 176 184 223
10 15 24 34 32 42 7 8 55 67 106 130 51 64 102 124 114 135 11 10 18 23 15 28
-3 5 10 26 29 48 20 21 44 51 53 67 10 15 21 30 24 33 3 3 20 24 39 47 55 72
29 70 -37 -3z"/>
<path d="M3228 2344 c6 -11 39 -50 74 -86 123 -126 276 -297 308 -344 55 -78
85 -114 96 -114 7 0 26 -11 42 -25 17 -14 35 -25 42 -25 6 0 8 -5 5 -10 -4 -6
-1 -9 6 -8 7 2 13 -2 14 -9 0 -6 4 -15 9 -20 5 -5 6 -3 2 5 -14 24 9 11 83
-50 84 -68 121 -93 57 -38 -41 34 -111 105 -295 293 -52 53 -98 94 -102 92
-12 -8 -109 105 -102 120 3 8 0 15 -7 15 -6 0 -8 -6 -4 -12 4 -7 -5 -2 -19 11
-27 25 -35 37 -17 26 6 -3 10 -1 10 4 0 6 -4 11 -10 11 -5 0 -10 4 -10 9 0 15
-96 112 -113 115 -9 1 -31 15 -48 32 -24 21 -29 24 -21 8z"/>
</g>
</svg>
